<?xml version="1.0" encoding="UTF-8"?>
<svg version="1.1" xmlns="http://www.w3.org/2000/svg" width="500" height="500">
<path d="M0 0 C165 0 330 0 500 0 C500 165 500 330 500 500 C335 500 170 500 0 500 C0 335 0 170 0 0 Z " fill="#FEFEFE" transform="translate(0,0)"/>
<path d="M0 0 C2.6577762 1.38257402 5.27387002 2.82632873 7.875 4.3125 C8.49149414 4.66473633 9.10798828 5.01697266 9.74316406 5.37988281 C24.27090691 13.85116418 35.04994242 24.76157643 44.875 38.3125 C45.51284424 39.1780249 45.51284424 39.1780249 46.16357422 40.06103516 C64.73295869 65.49845033 73.57560324 93.70373549 70.4375 125.125 C69.02985014 131.73442881 65.26363191 134.58190867 59.875 138.3125 C59.26591797 138.74498047 58.65683594 139.17746094 58.02929688 139.62304688 C32.03180264 158.00536821 4.76815849 174.4175142 -28.125 171.3125 C-37.06761285 169.73100898 -45.00553173 165.90636792 -52.125 160.3125 C-52.69734375 159.91289062 -53.2696875 159.51328125 -53.859375 159.1015625 C-58.93271305 155.3593478 -61.55625592 150.86316396 -62.54296875 144.703125 C-63.05103012 134.98130204 -59.09733237 128.35515785 -52.9375 121.125 C-40.7631931 108.33199882 -18.18728483 95.80119818 -0.125 95.3125 C2.97373789 96.43465124 5.7296549 98.01614626 8.5625 99.6875 C10.04348599 100.53231483 11.5264953 101.37359475 13.01171875 102.2109375 C13.65842529 102.58911621 14.30513184 102.96729492 14.97143555 103.35693359 C18.42963893 105.09291 21.60410134 105.45047258 25.4375 105.4375 C26.58412109 105.44136719 26.58412109 105.44136719 27.75390625 105.4453125 C30.06498495 105.39157384 30.06498495 105.39157384 32.875 104.3125 C35.14814853 101.08223631 35.35859814 98.18128511 34.875 94.3125 C33.24190981 91.64017061 31.78809573 90.59350207 28.7980957 89.67333984 C23.32983407 88.49448067 18.63862244 88.2946025 13.08837891 88.90209961 C-0.25208329 90.33836783 -0.25208329 90.33836783 -6 86.25 C-7.755134 84.65416956 -9.45862437 83.00080163 -11.125 81.3125 C-12.3428063 80.20543415 -13.56725807 79.10565165 -14.796875 78.01171875 C-29.87455872 64.47777402 -42.37811902 50.23276701 -50.125 31.3125 C-50.4653125 30.55710938 -50.805625 29.80171875 -51.15625 29.0234375 C-54.18257986 21.54167757 -54.41751472 12.58010715 -52.50390625 4.78125 C-50.20714503 -0.52682037 -46.01910516 -3.7831953 -41.125 -6.6875 C-27.87920913 -11.10276362 -11.99723602 -5.96088172 0 0 Z " fill="#FDFDFD" transform="translate(229.125,116.6875)"/>
<path d="M0 0 C6.08705848 3.60642734 11.49708307 7.72378407 16.70678711 12.52001953 C17.21806152 12.98891602 17.72933594 13.4578125 18.25610352 13.94091797 C42.238573 36.1882403 62.16002063 69.26017658 63.86108398 102.53857422 C64.02309321 108.87076389 63.94281694 115.19078873 63.70678711 121.52001953 C69.37611851 115.60365844 74.14409874 109.93184357 77.70678711 102.52001953 C76.93850586 102.41560547 76.17022461 102.31119141 75.37866211 102.20361328 C71.24147234 101.14512175 70.19614818 98.90831654 67.70678711 95.52001953 C65.85816023 91.82276578 66.23091617 87.55540511 66.70678711 83.52001953 C68.50325565 80.58578758 69.65089421 79.04796598 72.70678711 77.52001953 C79.65835406 76.83625885 79.65835406 76.83625885 83.58178711 79.39501953 C86.42406232 83.57483602 87.06255502 87.56808633 87.70678711 92.52001953 C95.62376289 82.64551187 94.8710125 68.26089039 95.86083984 56.19213867 C97.49132336 36.66087298 100.41932023 16.51298317 115.70678711 2.52001953 C126.74142466 -6.53882143 136.53510173 -9.56057148 150.70678711 -8.47998047 C151.36678711 -8.14998047 152.02678711 -7.81998047 152.70678711 -7.47998047 C152.37678711 -5.82998047 152.04678711 -4.17998047 151.70678711 -2.47998047 C150.8959668 -2.52638672 150.08514648 -2.57279297 149.24975586 -2.62060547 C138.00717386 -2.98706914 129.45802398 -0.7720944 120.76928711 6.55126953 C104.41288875 22.16419524 103.305852 44.49474054 101.62817383 65.72119141 C99.64237756 90.37698809 99.64237756 90.37698809 90.51928711 98.70751953 C88.60774299 100.20970813 86.87908022 101.43387298 84.70678711 102.52001953 C83.97162413 103.95491596 83.29368572 105.41932519 82.64428711 106.89501953 C78.51948919 115.36171 72.47377833 121.95476161 65.51928711 128.20751953 C60.76787248 132.82715379 58.9435509 137.22276625 56.88256836 143.34814453 C52.50823736 156.30102467 44.92473853 166.57387335 35.70678711 176.52001953 C35.18342773 177.09252441 34.66006836 177.6650293 34.12084961 178.25488281 C25.28618682 187.82664815 15.67663322 195.51848066 4.70678711 202.52001953 C3.76077637 203.12837646 3.76077637 203.12837646 2.7956543 203.74902344 C-23.11352392 220.10153756 -52.31243642 226.75812085 -82.29321289 230.52001953 C-82.96672791 230.60818939 -83.64024292 230.69635925 -84.33416748 230.78720093 C-89.9224159 231.47402262 -95.41633489 231.66632719 -101.04321289 231.65283203 C-102.39044434 231.65426712 -102.39044434 231.65426712 -103.76489258 231.6557312 C-105.65063548 231.65640714 -107.5363808 231.65459409 -109.42211914 231.65039062 C-112.28545427 231.64503405 -115.14863256 231.65035569 -118.01196289 231.65673828 C-119.85571323 231.6560774 -121.69946348 231.65479602 -123.54321289 231.65283203 C-124.38722656 231.65485626 -125.23124023 231.65688049 -126.10083008 231.65896606 C-130.16452193 231.64317425 -134.22296283 231.53909895 -138.27758789 231.26171875 C-139.36378418 231.19390701 -139.36378418 231.19390701 -140.47192383 231.12472534 C-142.29321289 230.52001953 -142.29321289 230.52001953 -143.54418945 228.47366333 C-143.79136719 227.82896088 -144.03854492 227.18425842 -144.29321289 226.52001953 C-143.30321289 225.53001953 -143.30321289 225.53001953 -142.29321289 224.52001953 C-140.09790039 224.54345703 -140.09790039 224.54345703 -137.16821289 224.89501953 C-103.02467947 227.9955811 -66.68132771 225.05981071 -34.29321289 213.52001953 C-33.04411133 213.10365234 -31.79500977 212.68728516 -30.50805664 212.25830078 C-11.83170631 205.856459 4.55302036 196.07788385 19.70678711 183.52001953 C20.26205078 183.07005615 20.81731445 182.62009277 21.3894043 182.15649414 C25.69958449 178.63864608 29.15596576 174.77650094 32.70678711 170.52001953 C33.34745117 169.77880859 33.98811523 169.03759766 34.64819336 168.27392578 C41.73774076 159.82473916 46.84518079 150.39282006 51.70678711 140.52001953 C51.19108154 140.87604248 50.67537598 141.23206543 50.14404297 141.59887695 C20.83329426 161.73291097 -8.68948832 180.67897199 -45.77905273 175.14941406 C-58.6976924 172.44878045 -69.73187044 165.08962453 -77.54321289 154.45751953 C-81.35632175 148.05694395 -81.08142186 140.78063676 -80.29321289 133.52001953 C-75.40324226 118.74532257 -63.22124416 108.06689848 -49.71899414 101.05908203 C-40.50183586 96.50783628 -31.06814332 92.69328406 -21.29321289 89.52001953 C-21.89907227 89.04693359 -22.50493164 88.57384766 -23.12915039 88.08642578 C-44.81898609 70.96814007 -66.34098857 49.28114111 -71.98071289 21.08251953 C-72.8954613 10.65438766 -72.17594049 2.43183951 -65.79321289 -6.29248047 C-48.2892177 -24.80547789 -18.05593327 -10.31705973 0 0 Z M-62.16821289 -1.54248047 C-67.10179276 5.56767876 -67.4738786 13.05956092 -66.29321289 21.52001953 C-60.63785685 44.63808968 -43.74363853 63.7590159 -26.16040039 79.02392578 C-23.29321289 81.52001953 -23.29321289 81.52001953 -21.05102539 83.79736328 C-16.05554969 88.28618041 -12.0886246 88.80637691 -5.59375 88.53271484 C-3.77074118 88.40239776 -1.94937317 88.24552734 -0.13134766 88.05810547 C6.94743093 87.33234757 14.21528436 87.19235103 20.33178711 91.27001953 C22.15318218 94.25048419 22.13686663 96.07938337 21.70678711 99.52001953 C20.89428711 101.83251953 20.89428711 101.83251953 19.70678711 103.52001953 C11.77426391 106.16419393 4.97636484 104.14934255 -2.29321289 100.52001953 C-3.18137695 99.96830078 -4.06954102 99.41658203 -4.98461914 98.84814453 C-11.22195983 94.97877378 -11.22195983 94.97877378 -18.35571289 94.70751953 C-20.3563508 95.23625955 -22.33417528 95.85346893 -24.29321289 96.52001953 C-24.95772461 96.74415527 -25.62223633 96.96829102 -26.30688477 97.19921875 C-44.74514038 103.55227516 -63.71117906 112.52449258 -73.29321289 130.52001953 C-76.02643126 136.4025864 -76.26563243 142.38538072 -74.78149414 148.69580078 C-71.23055442 157.33930772 -62.2988656 162.93123571 -54.04321289 166.45751953 C-52.14317247 167.18971743 -50.22521651 167.87687929 -48.29321289 168.52001953 C-46.69799805 169.06916016 -46.69799805 169.06916016 -45.07055664 169.62939453 C-40.34937874 170.74255747 -35.9394719 170.86293966 -31.10571289 170.83251953 C-29.70252808 170.82406006 -29.70252808 170.82406006 -28.27099609 170.81542969 C-21.20887178 170.69165102 -14.98838137 169.85113082 -8.29321289 167.52001953 C-7.18333008 167.18744141 -6.07344727 166.85486328 -4.92993164 166.51220703 C14.04669942 160.24578058 31.98567148 148.72753338 47.70678711 136.52001953 C48.54467773 135.94509766 49.38256836 135.37017578 50.24584961 134.77783203 C54.2980021 131.78525298 56.16739184 129.36726177 57.20678711 124.39501953 C57.44136598 122.10930594 57.59692841 119.81511102 57.70678711 117.52001953 C57.76817871 116.36928955 57.76817871 116.36928955 57.83081055 115.1953125 C58.4142703 102.73772358 57.45009828 91.42743306 53.70678711 79.52001953 C53.36776367 78.43978516 53.02874023 77.35955078 52.67944336 76.24658203 C47.22642418 60.83840683 38.83370765 46.30821781 28.70678711 33.52001953 C28.00682617 32.6327417 28.00682617 32.6327417 27.29272461 31.72753906 C13.42304275 14.3672588 -3.94318715 1.27079888 -25.29321289 -5.47998047 C-26.27547852 -5.79708984 -27.25774414 -6.11419922 -28.26977539 -6.44091797 C-39.99045177 -9.81177213 -53.35527374 -11.37132039 -62.16821289 -1.54248047 Z " fill="#0B0B0B" transform="translate(242.293212890625,117.47998046875)"/>
<path d="M0 0 C3.4826768 1.16089227 6.15112297 2.31028741 9 4.625 C10.63689478 8.51262509 10.12153549 11.99451611 9 16 C5.79709543 21.14405886 1.75119403 24.22569546 -4 26 C-7.03711082 26.29239266 -9.96199314 26.25316724 -13 26 C-12.35699811 27.48039971 -11.71051501 28.95928782 -11.0625 30.4375 C-10.70285156 31.26121094 -10.34320313 32.08492188 -9.97265625 32.93359375 C-9.16877677 34.94410117 -9.16877677 34.94410117 -8 36 C-1.50069904 36.58029473 3.45623031 35.54185286 9 32 C10.75413623 30.28781051 12.24545641 28.54848235 13.7109375 26.5859375 C15.53253817 24.34481668 17.25168183 23.11851816 20.12109375 22.6640625 C26.31495344 22.55961293 26.31495344 22.55961293 29.625 24.6875 C31 27 31 27 31.0625 29.5 C29.44209939 33.31270732 26.63978577 35.18010712 23 37 C21.12620395 37.07033769 19.24998898 37.0843022 17.375 37.0625 C16.37210938 37.05347656 15.36921875 37.04445313 14.3359375 37.03515625 C13.56507812 37.02355469 12.79421875 37.01195312 12 37 C12.495 39.475 12.495 39.475 13 42 C21.57730942 44.35876009 28.42939663 43.26552886 36.28125 39.06640625 C40.79530114 35.63546796 42.9026029 31.16989987 45 26 C46.32 26 47.64 26 49 26 C48.387826 30.1999786 46.9185504 33.38769924 44.9375 37.125 C42.59877265 41.3398662 42.59877265 41.3398662 42 46 C45.18140397 46.55674569 47.27226034 46.45588289 50.0390625 44.72265625 C58.61388222 37.64120401 61.15067222 28.15476823 64.26757812 17.80664062 C64.54923828 16.94361328 64.83089844 16.08058594 65.12109375 15.19140625 C65.3627124 14.40967041 65.60433105 13.62793457 65.85327148 12.82250977 C67 11 67 11 69.61743164 10.23803711 C70.4036792 10.15948486 71.18992676 10.08093262 72 10 C70.6393319 16.75523606 68.71290027 23.08575595 66.375 29.5625 C66.05015625 30.47580078 65.7253125 31.38910156 65.390625 32.33007812 C64.59846371 34.55511941 63.8015341 36.77832175 63 39 C63.56847656 38.46890625 64.13695312 37.9378125 64.72265625 37.390625 C76.08029197 27 76.08029197 27 82 27 C82.495 28.98 82.495 28.98 83 31 C82.22914063 31.40992188 81.45828125 31.81984375 80.6640625 32.2421875 C79.15972656 33.05042969 79.15972656 33.05042969 77.625 33.875 C76.62726563 34.40867187 75.62953125 34.94234375 74.6015625 35.4921875 C71.94651605 36.8820138 71.94651605 36.8820138 70 39 C70.35263785 43.50317123 70.35263785 43.50317123 73 47 C76.81654007 47.52043728 78.66455343 47.1848379 82.0625 45.3125 C83.031875 44.549375 84.00125 43.78625 85 43 C86.3303125 42.0409375 86.3303125 42.0409375 87.6875 41.0625 C91.29468249 36.28542049 91.95363148 30.81032275 93 25 C94.65 24.67 96.3 24.34 98 24 C97.41523944 31.09406894 96.36766005 38.01563899 95 45 C98.97802132 44.44307701 101.10716256 44.04493586 103.765625 40.93359375 C105.68432624 38.03225668 107.4443918 35.1112164 109 32 C110.32 32.66 111.64 33.32 113 34 C111.07957756 40.14535182 107.34151329 45.43899114 102 49 C98.75979645 50.08006785 96.39029913 50.38526126 93 50 C92.34 49.34 91.68 48.68 91 48 C91 47.01 91 46.02 91 45 C90.39414063 45.5053125 89.78828125 46.010625 89.1640625 46.53125 C83.9011189 50.6120555 79.98812822 53.06781372 73.203125 52.56640625 C69.70784944 51.66779817 68.06772638 49.86813659 66 47 C65.67 46.01 65.34 45.02 65 44 C61.45749235 47.43263779 61.45749235 47.43263779 58.4375 51.3125 C57.963125 51.869375 57.48875 52.42625 57 53 C55.68 53 54.36 53 53 53 C53 51.68 53 50.36 53 49 C51.96875 49.495 50.9375 49.99 49.875 50.5 C46.44709291 51.95720747 43.75806426 52.51246331 40 52 C37.74261495 50.44318272 37.13315798 49.42368447 36.3125 46.8125 C36.209375 46.214375 36.10625 45.61625 36 45 C35.13375 45.495 34.2675 45.99 33.375 46.5 C27.33227638 49.08267738 18.93943923 49.55063033 12.796875 47.1328125 C11.00009743 45.93786819 9.52348701 44.52348701 8 43 C7.95936168 41.33382885 7.957279 39.66611905 8 38 C6.88625 38.495 5.7725 38.99 4.625 39.5 C-0.13145637 41.26571826 -4.98797532 42.03838032 -10 41 C-14.5428738 38.21933241 -15.95142179 35.54225759 -17.4375 30.5 C-17.78683594 29.3759375 -18.13617188 28.251875 -18.49609375 27.09375 C-19.03142712 23.80705209 -18.85355882 22.69128824 -17 20 C-15.58847656 20.06960938 -15.58847656 20.06960938 -14.1484375 20.140625 C-6.32740613 20.69779684 -6.32740613 20.69779684 0.8125 18.125 C3.48753069 15.52639876 3.94022358 14.71731703 4.25 11 C4.1675 10.01 4.085 9.02 4 8 C0.2321286 5.48808573 -1.53615424 5.42294302 -6 6 C-8.20018976 7.84054335 -9.73809121 9.37330487 -11.5 11.5625 C-12.45057757 12.67294227 -13.40239715 13.78232257 -14.35546875 14.890625 C-14.80841309 15.42880859 -15.26135742 15.96699219 -15.72802734 16.52148438 C-17.3311138 18.38488007 -19.04580872 20.10456785 -20.8125 21.8125 C-24.09764915 25.03416801 -27.04779879 28.47175953 -30 32 C-31.32 31.67 -32.64 31.34 -34 31 C-30.88781396 24.15319071 -25.06017372 18.9961706 -19.76171875 13.79296875 C-17.86447176 11.86206771 -16.08556668 9.85776455 -14.3125 7.8125 C-13.73113281 7.14863281 -13.14976563 6.48476563 -12.55078125 5.80078125 C-11.33765616 4.3920894 -10.1613424 2.951678 -9 1.5 C-5.92855508 -0.80358369 -3.74615141 -0.44445864 0 0 Z " fill="#0E0E0E" transform="translate(84,357)"/>
<path d="M0 0 C0.33747548 2.87456792 0.67010463 5.74956059 1 8.625 C1.09539062 9.43324219 1.19078125 10.24148438 1.2890625 11.07421875 C1.78253617 15.40973739 2.11320717 19.62737311 2 24 C2.66 24 3.32 24 4 24 C4.2475 23.360625 4.495 22.72125 4.75 22.0625 C5.78274342 19.53227861 6.87332243 17.05128031 8 14.5625 C9.55328211 11.09659439 10.8816322 7.63469535 12 4 C13.32 4 14.64 4 16 4 C15.31798688 11.84315086 12.96230749 18.89637968 7.8125 24.9375 C4.56515943 28.94606255 4.46179094 32.27133269 4.265625 37.30859375 C3.86690227 41.34859321 2.38137968 44.72355003 0 48 C-3 50 -3 50 -5.5625 49.75 C-8 49 -8 49 -10 47 C-10.61040159 44.07007238 -10.79236932 42.81445468 -10 40 C-8.07601241 37.26524908 -5.99598558 34.80807438 -3.75 32.33203125 C-1.59985711 29.95271138 -1.59985711 29.95271138 -2 26 C-2.29132813 26.49371094 -2.58265625 26.98742187 -2.8828125 27.49609375 C-6.22142895 32.71399431 -6.22142895 32.71399431 -10.0625 34.125 C-13.47162567 33.97993082 -14.43248775 33.10922512 -17 31 C-17.391875 31.4846875 -17.78375 31.969375 -18.1875 32.46875 C-24.52748643 39.57390721 -32.378539 43.29099618 -41 47 C-41.66 47 -42.32 47 -43 47 C-43.3125 44.6875 -43.3125 44.6875 -43 42 C-42.2575 41.5875 -41.515 41.175 -40.75 40.75 C-36.65048169 38.14121562 -35.38029822 34.56328099 -34 30 C-33.7182988 27.54517529 -33.78912865 25.47773832 -34 23 C-36.65906109 23.34511218 -37.72484109 23.65111066 -39.4140625 25.79296875 C-43.06511822 33.012637 -44.22625996 39.98543903 -45 48 C-46.32 48 -47.64 48 -49 48 C-49.20638953 16.67959553 -49.20638953 16.67959553 -48 3 C-46.68 2.67 -45.36 2.34 -44 2 C-43.67 8.6 -43.34 15.2 -43 22 C-40.03 19.525 -40.03 19.525 -37 17 C-33.75 16.5 -33.75 16.5 -31 17 C-28.78827692 20.31758462 -28.72859286 21.44316014 -28.75 25.3125 C-28.74484375 26.23675781 -28.7396875 27.16101563 -28.734375 28.11328125 C-29.02893069 31.31440854 -29.88171448 33.99571709 -31 37 C-29.36828877 35.59106853 -27.74486055 34.17254042 -26.125 32.75 C-25.22007812 31.96109375 -24.31515625 31.1721875 -23.3828125 30.359375 C-19.98236369 26.99237322 -19.07669602 25.35598562 -18.8046875 20.546875 C-18.82789063 19.29390625 -18.85109375 18.0409375 -18.875 16.75 C-18.90207031 14.85507812 -18.90207031 14.85507812 -18.9296875 12.921875 C-18.95289063 11.95765625 -18.97609375 10.9934375 -19 10 C-17.68 9.34 -16.36 8.68 -15 8 C-14.01 14.93 -13.02 21.86 -12 29 C-8.72325808 28.28126789 -8.72325808 28.28126789 -7.34375 25.05078125 C-5.25544885 19.72806054 -5.53194734 14.22477944 -5.47265625 8.58789062 C-5.45074219 7.76869141 -5.42882812 6.94949219 -5.40625 6.10546875 C-5.39916016 5.36449951 -5.39207031 4.62353027 -5.38476562 3.86010742 C-4.76773055 0.87711871 -2.92630443 0 0 0 Z " fill="#0D0D0D" transform="translate(255,353)"/>
<path d="M0 0 C1.796875 0.1875 1.796875 0.1875 4 1 C8.15208056 6.33294751 10.97532737 12.2831507 10.4609375 19.1171875 C9.73820729 22.06935668 8.52996558 23.3836331 6 25 C4.68 25 3.36 25 2 25 C2.33 25.639375 2.66 26.27875 3 26.9375 C4.79299032 32.42853285 4.97327711 37.73848885 2.375 43 C0 46 0 46 -3.25 46.9375 C-4.1575 46.958125 -5.065 46.97875 -6 47 C-5.7525 47.7734375 -5.7525 47.7734375 -5.5 48.5625 C-4.28048903 54.507616 -4.75543837 58.83273518 -8 64 C-11 66 -11 66 -13.375 65.9375 C-18.62319499 64.06314465 -21.42580904 59.74193072 -24 55 C-25.98 55.495 -25.98 55.495 -28 56 C-27.52498242 58.21674869 -26.9801301 60.03857099 -25.9375 62.0625 C-25 64 -25 64 -25 67 C-26.32 67 -27.64 67 -29 67 C-29.598125 66.030625 -30.19625 65.06125 -30.8125 64.0625 C-32.74435807 60.62504215 -32.74435807 60.62504215 -36.625 60.25 C-37.73875 60.1675 -38.8525 60.085 -40 60 C-40.66 59.34 -41.32 58.68 -42 58 C-41.625 54.875 -41.625 54.875 -41 52 C-39.96939453 52.05220703 -39.96939453 52.05220703 -38.91796875 52.10546875 C-38.01691406 52.13253906 -37.11585938 52.15960938 -36.1875 52.1875 C-35.29417969 52.22230469 -34.40085937 52.25710938 -33.48046875 52.29296875 C-30.94050204 52.25256396 -30.94050204 52.25256396 -29.48828125 50.48828125 C-28 49 -28 49 -25.58203125 48.5 C-21.88783424 49.21536644 -20.88606253 51.01889827 -18.6875 54 C-17.99011719 54.928125 -17.29273438 55.85625 -16.57421875 56.8125 C-16.05472656 57.534375 -15.53523438 58.25625 -15 59 C-12.525 58.505 -12.525 58.505 -10 58 C-9.525684 52.42678705 -10.64695389 48.9170826 -13.125 43.91796875 C-14 42 -14 42 -14 40 C-15.65 39.34 -17.3 38.68 -19 38 C-19 38.66 -19 39.32 -19 40 C-20.32 39.34 -21.64 38.68 -23 38 C-22.9071875 36.8553125 -22.9071875 36.8553125 -22.8125 35.6875 C-22.70121773 32.95083171 -22.70121773 32.95083171 -24.5625 31.5 C-25.036875 31.005 -25.51125 30.51 -26 30 C-25.6875 27.3125 -25.6875 27.3125 -25 25 C-23.35 25.66 -21.7 26.32 -20 27 C-19.01 25.68 -18.02 24.36 -17 23 C-15.4375 24.625 -15.4375 24.625 -14 27 C-14.2475 27.928125 -14.495 28.85625 -14.75 29.8125 C-15.33107755 32.94407088 -15.33107755 32.94407088 -13.6953125 34.90625 C-10.47854753 38.27487941 -7.88752844 40.85189308 -3 41 C-0.10486346 35.20972691 -2.29609131 27.94887586 -3.953125 22.06640625 C-5.25787486 19.49098582 -6.36608985 19.05755483 -9 18 C-11.75 16.1875 -11.75 16.1875 -14 14 C-14.3125 11.25 -14.3125 11.25 -14 9 C-9.38658427 11.06733252 -5.63594581 14.2480748 -1.65625 17.3203125 C1.03966699 19.35630703 1.03966699 19.35630703 5 19 C5.91713745 13.19146281 3.33974958 9.88248747 0.21484375 5.26953125 C-0.18605469 4.52058594 -0.58695312 3.77164063 -1 3 C-0.67 2.01 -0.34 1.02 0 0 Z " fill="#0F0F0F" transform="translate(349,230)"/>
<path d="M0 0 C1.32 0 2.64 0 4 0 C6.39444677 5.53715814 6.74859256 11.06410139 6 17 C4.79603908 19.8001625 3.1651197 21.8348803 1 24 C-1.33944736 23.71269945 -3.6739143 23.38063221 -6 23 C-5.94779297 23.88751953 -5.94779297 23.88751953 -5.89453125 24.79296875 C-5.60469402 33.25345547 -5.60469402 33.25345547 -9 37 C-11.5625 37.875 -11.5625 37.875 -14 38 C-14.66 37.67 -15.32 37.34 -16 37 C-16.0825 38.216875 -16.165 39.43375 -16.25 40.6875 C-16.78436722 44.81603577 -17.81361739 47.15809119 -21 50 C-24.125 50.9375 -24.125 50.9375 -27 51 C-27.66 50.34 -28.32 49.68 -29 49 C-29.09796875 49.60328125 -29.1959375 50.2065625 -29.296875 50.828125 C-30.00159345 54.59472359 -30.57616628 57.40078682 -32.8125 60.5625 C-35 62 -35 62 -37.5 62.5625 C-41.05930386 61.76165663 -42.05110532 59.9929454 -44 57 C-45.2118486 53.36445419 -45.2609802 49.97592248 -45.3125 46.1875 C-45.35600586 45.13852539 -45.35600586 45.13852539 -45.40039062 44.06835938 C-45.46301791 38.91846962 -44.30852512 36.13091186 -41 32 C-40 31 -40 31 -36.9375 30.9375 C-35.4834375 30.9684375 -35.4834375 30.9684375 -34 31 C-34.25 32.875 -34.25 32.875 -35 35 C-36.31647119 35.69937532 -37.65022151 36.36729133 -39 37 C-40.1151293 40.3453879 -40.13299072 42.91758812 -40.125 46.4375 C-40.12886719 48.13712891 -40.12886719 48.13712891 -40.1328125 49.87109375 C-40.02325193 52.45221183 -39.75864877 54.54944405 -39 57 C-37.68 57 -36.36 57 -35 57 C-35 50.07 -35 43.14 -35 36 C-32.525 35.505 -32.525 35.505 -30 35 C-29.63648438 35.95712891 -29.63648438 35.95712891 -29.265625 36.93359375 C-28.93046875 37.75988281 -28.5953125 38.58617187 -28.25 39.4375 C-27.92515625 40.26121094 -27.6003125 41.08492188 -27.265625 41.93359375 C-26.18068448 44.1849879 -26.18068448 44.1849879 -23.859375 44.78515625 C-23.24578125 44.85605469 -22.6321875 44.92695313 -22 45 C-21.04192283 41.77599427 -20.86577708 38.85714324 -20.875 35.5 C-20.87242187 34.5615625 -20.86984375 33.623125 -20.8671875 32.65625 C-20.90549599 30.10624176 -20.90549599 30.10624176 -21.484375 28.12109375 C-22.25847709 24.93671926 -22.29070879 21.83364722 -22.375 18.5625 C-22.42398437 17.26441406 -22.47296875 15.96632813 -22.5234375 14.62890625 C-21.87611545 10.14112876 -20.56315739 8.71155232 -17 6 C-16.01 6 -15.02 6 -14 6 C-14 7.32 -14 8.64 -14 10 C-14.48726563 10.45761719 -14.97453125 10.91523438 -15.4765625 11.38671875 C-18.26275084 14.33722076 -17.39069841 18.19428174 -17.29296875 22.04296875 C-16.93804126 25.62537025 -16.08763398 28.06184848 -14 31 C-12.515 31.99 -12.515 31.99 -11 33 C-10.73557096 25.40501039 -11.39118425 18.42640842 -13 11 C-11.68 10.67 -10.36 10.34 -9 10 C-5 15.75 -5 15.75 -5 18 C-3.35 18.33 -1.7 18.66 0 19 C0 12.73 0 6.46 0 0 Z " fill="#0E0E0E" transform="translate(322,298)"/>
<path d="M0 0 C0.66 0.33 1.32 0.66 2 1 C2.6328125 3.28515625 2.6328125 3.28515625 3.125 6.0625 C3.29257812 6.98160156 3.46015625 7.90070313 3.6328125 8.84765625 C3.75398438 9.55792969 3.87515625 10.26820313 4 11 C6.31 11.66 8.62 12.32 11 13 C11.33 14.32 11.66 15.64 12 17 C10.906875 17.433125 9.81375 17.86625 8.6875 18.3125 C5.92071039 19.83785283 5.12154262 20.68297248 3.97265625 23.6796875 C3.49836156 25.6537789 3.07328857 27.64047947 2.703125 29.63671875 C2.47109375 30.41660156 2.2390625 31.19648438 2 32 C0.515 32.495 0.515 32.495 -1 33 C-1.20753906 32.18015625 -1.41507812 31.3603125 -1.62890625 30.515625 C-3.1972533 24.34059311 -3.1972533 24.34059311 -6.82421875 19.3125 C-8.91600135 18.1012385 -8.91600135 18.1012385 -12 17 C-12 16.34 -12 15.68 -12 15 C-6.25 12 -6.25 12 -4 12 C-3.79503906 11.21753906 -3.59007812 10.43507812 -3.37890625 9.62890625 C-3.10949219 8.61699219 -2.84007812 7.60507813 -2.5625 6.5625 C-2.29566406 5.55316406 -2.02882813 4.54382813 -1.75390625 3.50390625 C-1 1 -1 1 0 0 Z " fill="#FF6EC6" transform="translate(380,144)"/>
<path d="M0 0 C5.2027027 0.74324324 5.2027027 0.74324324 7.5 3.5 C8.0625 6.375 8.0625 6.375 7.5 9.5 C5.03856432 12.4271127 2.67875822 14.38082786 -0.5 16.5 C-2.73069494 16.48866229 -4.96145432 16.39439215 -7.1875 16.25 C-13.43846823 16.12044625 -16.62464261 17.01432135 -21.2421875 21.1875 C-21.65726563 21.620625 -22.07234375 22.05375 -22.5 22.5 C-21.2056614 19.64080064 -19.85444251 17.61971358 -17.6015625 15.44140625 C-17.03953125 14.89033203 -16.4775 14.33925781 -15.8984375 13.77148438 C-15.31320313 13.20751953 -14.72796875 12.64355469 -14.125 12.0625 C-9.47380704 7.56144122 -9.47380704 7.56144122 -5.3046875 2.62109375 C-3.5 0.5 -3.5 0.5 0 0 Z " fill="#F9F9F9" transform="translate(81.5,361.5)"/>
<path d="M0 0 C0.99 0.33 1.98 0.66 3 1 C3.7166207 3.31847874 4.38242027 5.65319703 5 8 C7.35953094 10.35953094 8.77895617 10.49141413 12 11 C12 11.66 12 12.32 12 13 C10.576875 13.928125 10.576875 13.928125 9.125 14.875 C5.56630369 17.27459962 5.56630369 17.27459962 4 21 C3.61250787 23.32495277 3.27017161 25.65851268 3 28 C2.01 28.33 1.02 28.66 0 29 C-0.14695312 28.33613281 -0.29390625 27.67226562 -0.4453125 26.98828125 C-2.04735782 20.68137871 -3.55916436 17.62722376 -9 14 C-8.67 13.34 -8.34 12.68 -8 12 C-7.21625 11.835 -6.4325 11.67 -5.625 11.5 C-2.31754618 9.61002639 -2.23968177 8.44939742 -1.1875 4.875 C-0.77214352 3.25488024 -0.3701445 1.63104325 0 0 Z " fill="#FF6CC6" transform="translate(405,134)"/>
<path d="M0 0 C1.32 0.33 2.64 0.66 4 1 C4.70029004 7.4426684 2.8717549 12.77074092 -1 18 C-2.65322091 18.69934457 -4.31912466 19.37001563 -6 20 C-6.33 20.99 -6.66 21.98 -7 23 C-7.33 23 -7.66 23 -8 23 C-8.68918286 15.24669281 -6.21639117 8.13988749 -1.75 1.8125 C-1.1725 1.214375 -0.595 0.61625 0 0 Z " fill="#EFEFEF" transform="translate(218,375)"/>
<path d="M0 0 C0.99 0.33 1.98 0.66 3 1 C3.625 2.77734375 3.625 2.77734375 4 4.9375 C4.31926011 7.07376659 4.31926011 7.07376659 5 9 C5.99 9.66 6.98 10.32 8 11 C8 11.99 8 12.98 8 14 C7.38125 14.165 6.7625 14.33 6.125 14.5 C2.72243051 16.90181375 2.77387974 20.00162134 2 24 C1.01 24 0.02 24 -1 24 C-1.061875 22.906875 -1.12375 21.81375 -1.1875 20.6875 C-1.6132233 16.85667284 -1.6132233 16.85667284 -4.5625 15.0625 C-5.366875 14.711875 -6.17125 14.36125 -7 14 C-6.0360896 11.84973834 -5.28912076 10.25298067 -3.5 8.6875 C-1.23647745 6.14103713 -0.7985305 3.25554744 0 0 Z " fill="#FF6FC7" transform="translate(397,173)"/>
<path d="M0 0 C0.99 0.33 1.98 0.66 3 1 C5.79019662 7.43008274 6.43934891 14.08025464 6 21 C5.67 21.66 5.34 22.32 5 23 C2.18420272 22.02903542 1.03249923 21.0441061 -0.75 18.625 C-2.52758939 13.46999078 -2.60086233 8.40776094 -2 3 C-1.34 2.01 -0.68 1.02 0 0 Z " fill="#F1F1F1" transform="translate(306,308)"/>
<path d="M0 0 C2.4375 0.9375 2.4375 0.9375 3.75 2.5 C4.76004775 6.08107839 4.62043796 9.2177615 4.4375 12.9375 C3.4375 13.9375 3.4375 13.9375 1.125 14.3125 C-1.5625 13.9375 -1.5625 13.9375 -3.875 11.8125 C-5.83622261 8.47115777 -6.14227821 6.74747107 -5.5625 2.9375 C-3.89934113 0.22392501 -3.19467436 -0.07791889 0 0 Z " fill="#EDEDED" transform="translate(319.5625,200.0625)"/>
<path d="M0 0 C3.10408807 -0.05807043 6.2080364 -0.09361914 9.3125 -0.125 C10.19357422 -0.14175781 11.07464844 -0.15851563 11.98242188 -0.17578125 C12.82998047 -0.18222656 13.67753906 -0.18867188 14.55078125 -0.1953125 C15.72120972 -0.21102295 15.72120972 -0.21102295 16.9152832 -0.22705078 C19 0 19 0 22 2 C22.1875 4.625 22.1875 4.625 22 7 C13.29015546 8.04055665 7.4671045 5.31090569 0 1 C0 0.67 0 0.34 0 0 Z " fill="#F0F0F0" transform="translate(237,210)"/>
<path d="M0 0 C0.33 1.32 0.66 2.64 1 4 C-2.08888522 6.05925681 -2.70935927 6.2390374 -6.1875 6.125 C-8.0746875 6.063125 -8.0746875 6.063125 -10 6 C-7.82304683 0.97626191 -5.41372848 -0.29263397 0 0 Z " fill="#EEEEEE" transform="translate(109,384)"/>
<path d="M0 0 C0.33 0 0.66 0 1 0 C0.88590407 1.45922693 0.75834456 2.91740598 0.625 4.375 C0.55539063 5.18710937 0.48578125 5.99921875 0.4140625 6.8359375 C0 9 0 9 -2 11 C-2.99 11 -3.98 11 -5 11 C-5.3888868 8.35556973 -5.39540909 6.61173798 -3.921875 4.33203125 C-2.68085526 2.83068266 -1.34417351 1.40974295 0 0 Z " fill="#DDDDDD" transform="translate(254,387)"/>
<path d="M0 0 C0.99 0 1.98 0 3 0 C3 1.65 3 3.3 3 5 C1.68 5.33 0.36 5.66 -1 6 C-1.625 4.125 -1.625 4.125 -2 2 C-1.34 1.34 -0.68 0.68 0 0 Z " fill="#1C1C1C" transform="translate(181,371)"/>
<path d="M0 0 C2.0625 0.4375 2.0625 0.4375 4 1 C4 2.65 4 4.3 4 6 C2.68 5.67 1.36 5.34 0 5 C-0.5625 3.0625 -0.5625 3.0625 -1 1 C-0.67 0.67 -0.34 0.34 0 0 Z " fill="#222222" transform="translate(327,233)"/>
<path d="M0 0 C0.99 0.33 1.98 0.66 3 1 C-0.96 4.465 -0.96 4.465 -5 8 C-5 5 -5 5 -2.5 2.3125 C-1.675 1.549375 -0.85 0.78625 0 0 Z " fill="#D2D2D2" transform="translate(65,376)"/>
<path d="M0 0 C0.99 0 1.98 0 3 0 C2.67 1.65 2.34 3.3 2 5 C0.68 5 -0.64 5 -2 5 C-1.125 1.125 -1.125 1.125 0 0 Z " fill="#0C0C0C" transform="translate(134,374)"/>
<path d="M0 0 C2 3 2 3 1.625 5.6875 C1.41875 6.450625 1.2125 7.21375 1 8 C0.01 8 -0.98 8 -2 8 C-1.34 5.36 -0.68 2.72 0 0 Z " fill="#CCCCCC" transform="translate(252,376)"/>
</svg>
