<svg version="1.1" id="Layer_1" xmlns="http://www.w3.org/2000/svg" xmlns:xlink="http://www.w3.org/1999/xlink" x="0px" y="0px"
	 width="100%" viewBox="0 0 500 500" enable-background="new 0 0 500 500" xml:space="preserve">
<path fill="#D14D72" opacity="1.000000" stroke="none" 
	d="
M343.000000,501.000000 
	C228.666687,501.000000 114.833389,501.000000 1.000061,501.000000 
	C1.000041,334.333405 1.000041,167.666794 1.000020,1.000151 
	C167.666565,1.000100 334.333130,1.000100 500.999756,1.000050 
	C500.999847,167.666519 500.999847,334.333038 500.999939,500.999786 
	C448.500000,501.000000 396.000000,501.000000 343.000000,501.000000 
M226.142822,389.259399 
	C225.967651,389.058685 225.792480,388.857941 225.791122,387.910797 
	C226.309875,384.158447 227.512970,380.346191 227.191025,376.667389 
	C226.675613,370.777893 221.912537,368.963196 217.101974,372.465118 
	C215.432190,373.680634 214.186600,375.478851 211.970016,377.838287 
	C211.970016,369.941681 211.970016,363.127838 211.970016,356.313965 
	C211.380844,356.104614 210.791672,355.895294 210.202515,355.685944 
	C209.367050,357.376465 207.878784,359.037140 207.800034,360.762207 
	C207.200211,373.900085 206.866409,387.050201 206.489792,400.197693 
	C206.468369,400.945374 206.798370,401.703156 206.964813,402.456268 
	C207.512451,402.640747 208.060104,402.825226 208.607758,403.009705 
	C209.416840,401.317169 210.436188,399.691193 210.996902,397.920013 
	C212.935623,391.796021 214.506104,385.544922 216.713959,379.524567 
	C217.211014,378.169250 219.719971,377.551758 221.302750,376.594604 
	C221.815857,378.393738 223.012863,380.315247 222.716812,381.969604 
	C221.737854,387.440033 219.788345,392.493652 214.831421,395.896210 
	C213.757065,396.633698 213.465302,398.511261 212.813095,399.863708 
	C224.009079,397.619720 232.614548,392.335327 238.076431,385.590210 
	C242.074600,386.290344 245.329559,387.908936 247.430603,386.963409 
	C250.070053,385.775574 251.764587,382.487976 253.866882,380.106506 
	C254.038773,382.441040 253.432892,384.490448 252.348007,386.243439 
	C250.433685,389.336761 247.509720,392.010559 246.406616,395.325287 
	C245.721848,397.382965 246.910477,401.130096 248.586700,402.543518 
	C249.760605,403.533447 254.549072,402.629883 255.332336,401.232147 
	C257.502625,397.359283 258.416748,392.783569 259.836761,388.488739 
	C260.680756,385.936157 260.990601,382.988434 262.497894,380.913849 
	C267.370544,374.207245 271.046204,367.137299 271.911896,358.828186 
	C268.479065,356.585938 267.756836,358.659790 267.179779,361.226501 
	C265.869751,367.053772 263.606964,372.402771 258.794067,377.988037 
	C257.465088,369.239197 256.335571,361.803253 255.206039,354.367340 
	C254.568970,354.246857 253.931900,354.126343 253.294846,354.005859 
	C252.604980,355.809784 251.515228,357.567383 251.299698,359.426300 
	C250.632492,365.180939 250.571609,371.015839 249.700348,376.731964 
	C249.349960,379.030792 247.505173,381.101807 246.340530,383.276520 
	C245.644821,383.181335 244.949127,383.086151 244.253433,382.990967 
	C243.057709,376.143341 241.861984,369.295685 240.674423,362.494843 
	C236.412781,363.051422 236.437744,365.897003 237.194229,368.536102 
	C240.175827,378.937744 234.245468,384.780518 226.142822,389.259399 
M319.227448,322.649689 
	C325.151245,323.245880 328.427521,319.718964 329.015686,312.453308 
	C329.686188,304.171295 326.167053,297.322510 322.159027,290.508820 
	C321.535706,289.449127 322.387939,287.521362 322.557861,285.995026 
	C324.060455,286.429443 325.852295,286.498474 326.987518,287.397034 
	C328.218689,288.371490 328.777252,290.161743 329.737122,291.519897 
	C331.951843,294.653687 334.628448,297.291016 338.846283,296.208099 
	C343.270203,295.072235 344.508118,291.230499 344.848785,287.319275 
	C345.100464,284.429596 344.527893,281.468170 344.325378,278.579193 
	C353.151855,276.605316 354.601562,272.562347 352.399567,256.601135 
	C359.208221,254.853943 361.760712,251.340881 359.735840,244.667755 
	C358.414246,240.312332 355.740082,236.320877 353.314667,232.386581 
	C352.838165,231.613663 350.725037,231.849731 348.396027,231.456619 
	C351.224152,236.639114 353.587738,240.287949 355.197083,244.243652 
	C355.874298,245.908279 354.958313,248.221069 354.766541,250.239227 
	C352.819977,249.810013 350.545776,249.878693 348.990326,248.855133 
	C344.872772,246.145599 341.066254,242.963394 337.126129,239.961777 
	C334.348022,243.414597 336.062286,245.306198 338.569031,246.804062 
	C344.391083,250.282944 348.031860,255.419983 348.723450,262.024963 
	C349.073669,265.369751 348.834381,270.306946 346.774811,272.030548 
	C343.299988,274.938446 340.904114,270.104462 338.342377,268.093292 
	C335.456024,265.827271 332.481262,263.533325 335.066101,258.987488 
	C335.540802,258.152588 334.036530,256.192413 333.105988,253.923157 
	C331.496796,256.549927 330.580078,258.046326 329.636963,259.585815 
	C328.227051,258.562775 327.046783,257.706360 325.866486,256.849945 
	C325.406464,257.004333 324.946411,257.158722 324.486359,257.313141 
	C324.861359,259.004333 325.159973,260.717102 325.630188,262.381409 
	C326.254456,264.590942 326.456085,267.298157 327.886139,268.784119 
	C329.068115,270.012329 332.231750,269.171509 333.714722,270.301117 
	C339.039337,274.356964 340.464905,280.419342 340.549988,286.718658 
	C340.569153,288.137451 339.080933,290.215240 337.759735,290.800781 
	C336.793793,291.228882 334.669678,290.015686 333.593231,288.981171 
	C332.187256,287.630005 331.308136,285.731415 330.198547,284.070892 
	C326.984222,279.260559 324.658173,278.973083 319.941284,282.176514 
	C318.593750,283.091675 316.527252,283.004517 314.772552,283.248291 
	C312.929169,283.504395 310.762695,283.102081 309.321869,283.964264 
	C308.455933,284.482391 307.960175,287.490082 308.617523,288.277496 
	C309.830811,289.730927 312.139191,291.350281 313.767487,291.142914 
	C316.772400,290.760223 318.033997,292.064392 319.275543,294.209198 
	C320.186371,295.782745 321.792419,297.162231 322.127197,298.822083 
	C323.160309,303.945068 323.900208,309.146759 324.343536,314.352814 
	C324.432861,315.402100 322.877655,317.287933 321.791260,317.539795 
	C320.758759,317.779205 319.212036,316.546326 318.145111,315.656555 
	C317.286713,314.940735 316.950806,313.620544 316.129120,312.833679 
	C314.505524,311.278900 312.706207,309.907715 310.979523,308.460602 
	C310.672363,308.740326 310.365204,309.020020 310.058044,309.299744 
	C309.800537,307.922699 309.543060,306.545685 309.243103,304.941559 
	C303.732086,305.412079 301.494385,308.977448 301.188019,313.276642 
	C300.862793,317.840607 301.820343,322.486816 302.084900,327.104706 
	C302.319855,331.205963 302.752686,335.357788 302.324768,339.405548 
	C302.146423,341.092743 299.964478,342.568085 298.693542,344.139740 
	C297.350159,342.832489 295.729828,341.704529 294.736511,340.170593 
	C293.604523,338.422485 293.031647,336.312378 292.265839,334.479492 
	C288.743256,334.445923 288.120361,335.723755 288.431702,338.823517 
	C288.908905,343.574097 288.629547,348.421936 288.348175,353.209503 
	C288.292114,354.163269 286.904846,355.247833 285.879333,355.821259 
	C285.525024,356.019348 284.175507,355.006714 283.671906,354.277039 
	C280.119415,349.129547 281.946320,337.808289 286.730408,333.871063 
	C287.723145,333.054047 288.215118,331.628662 289.245880,329.995667 
	C284.850342,328.977966 282.190979,330.416534 280.559845,333.392761 
	C276.257141,341.243530 276.066345,349.397339 280.205261,357.296967 
	C283.110291,362.841583 288.403534,362.685181 291.271576,357.105072 
	C292.594849,354.530518 293.094299,351.532532 294.071442,348.391815 
	C297.989716,350.437164 301.552216,349.860474 303.758698,346.280731 
	C305.615204,343.268707 306.643433,339.746124 308.051270,336.419006 
	C313.561523,337.110901 316.285828,335.121307 317.136536,329.470184 
	C317.431854,327.508301 317.335083,325.487427 317.968811,322.935516 
	C318.147644,322.744690 318.326447,322.553894 319.227448,322.649689 
M127.502213,344.420837 
	C119.689537,343.981140 111.879951,343.392670 104.061531,343.230530 
	C102.545464,343.199097 100.994919,344.830780 99.460266,345.695312 
	C100.783607,346.721252 102.017570,347.908997 103.465683,348.709076 
	C104.263794,349.149994 105.421745,349.011810 106.417488,349.012024 
	C122.883392,349.015442 139.425079,350.008850 155.799561,348.779327 
	C190.822540,346.149597 224.124512,337.173431 253.386185,316.806213 
	C276.309723,300.850586 294.471130,280.909332 303.147430,253.587662 
	C303.716766,251.794800 305.000244,250.043030 306.382996,248.724579 
	C314.739471,240.756699 322.748474,232.555023 327.512604,221.771652 
	C327.892151,220.912567 328.585266,219.982132 329.384247,219.550293 
	C338.790558,214.466232 341.904205,205.622192 343.165894,195.934738 
	C344.412537,186.362823 345.032135,176.710602 346.011566,167.102249 
	C347.576263,151.752304 351.037140,137.119446 362.744904,125.917709 
	C369.865784,119.104568 378.228882,115.106514 388.333923,115.335777 
	C391.011871,115.396538 395.419891,117.876915 395.672668,113.366432 
	C395.917786,108.991348 391.087616,110.028587 388.217224,109.945969 
	C370.793213,109.444435 353.647736,121.117760 346.878143,139.929626 
	C343.156982,150.270325 341.904633,161.552444 340.051941,172.496902 
	C338.360809,182.487000 337.577240,192.629913 335.922272,202.627426 
	C335.436523,205.561707 333.342560,208.229767 331.427429,212.167755 
	C330.048981,207.315796 329.545593,203.988998 328.167816,201.075760 
	C326.318909,197.166473 322.947266,195.032440 318.400177,195.684128 
	C313.758514,196.349350 310.890076,199.113419 309.941528,203.680222 
	C308.893494,208.725952 309.912628,213.451782 313.573120,217.093613 
	C315.583344,219.093597 318.386078,220.297028 321.754913,222.449661 
	C316.881226,228.542160 312.081421,234.542313 307.281586,240.542480 
	C306.415039,233.256226 307.101959,226.698257 306.304260,220.326111 
	C300.868958,176.907776 279.361847,143.185562 243.131012,119.117920 
	C230.182037,110.516106 215.744324,104.500870 199.715866,104.185150 
	C181.575668,103.827835 169.300018,117.025726 171.531403,135.003479 
	C172.360184,141.680710 174.156403,148.470718 176.821182,154.643921 
	C185.135910,173.905731 199.185791,188.757843 215.047012,202.048630 
	C217.523270,204.123596 220.019470,206.174744 222.205307,207.987198 
	C211.801819,212.497787 201.532562,216.408875 191.771667,221.328537 
	C181.192123,226.660782 172.532730,234.534302 166.615005,244.962463 
	C160.456909,255.814240 161.186066,268.039764 168.603470,276.234131 
	C174.962006,283.258698 182.686447,288.438293 191.911530,291.080841 
	C209.320435,296.067627 226.888031,296.170074 243.217773,288.399597 
	C258.932037,280.921967 273.663849,271.378448 288.815613,262.722107 
	C290.411591,261.810333 291.928680,260.760437 293.482361,259.774597 
	C293.688049,262.273102 293.140259,263.960297 292.329803,265.510193 
	C278.776276,291.429230 257.880554,309.786469 232.121674,322.721100 
	C199.564926,339.069183 164.686859,345.039001 127.502213,344.420837 
M194.393661,398.907959 
	C195.004211,396.174988 200.473694,393.713196 194.994095,390.219635 
	C192.584000,393.677002 190.739532,397.114960 188.117798,399.791626 
	C186.504868,401.438354 183.704361,401.921906 181.437088,402.927765 
	C181.086823,400.632812 180.202393,398.266296 180.498276,396.057922 
	C181.101181,391.557892 182.340332,387.143127 183.317352,382.693268 
	C182.711243,382.378510 182.105148,382.063782 181.499039,381.749054 
	C180.319153,383.138885 178.732330,384.357239 178.057068,385.959686 
	C177.101761,388.226715 177.033524,390.852844 176.208344,393.192200 
	C173.946472,399.604553 169.143005,403.668640 162.898605,405.671875 
	C158.676193,407.026489 156.101807,404.073853 154.268951,400.576691 
	C152.342850,396.901611 155.654205,395.936646 157.605133,394.514618 
	C160.014771,392.758270 162.865524,391.591614 165.202789,389.758423 
	C166.286957,388.908020 166.607880,387.084473 167.274796,385.702087 
	C166.698456,385.313385 166.122116,384.924683 165.545776,384.536011 
	C160.213837,387.865662 154.881897,391.195343 149.549957,394.524994 
	C149.253754,394.281250 148.957550,394.037476 148.661362,393.793701 
	C151.652451,385.276459 154.643524,376.759186 157.634613,368.241943 
	C157.131363,367.820984 156.628113,367.400055 156.124863,366.979095 
	C154.751541,368.242096 152.750244,369.249664 152.114563,370.812653 
	C149.483841,377.281006 147.004883,383.837921 144.974396,390.515594 
	C143.141418,396.543671 139.051163,400.504272 134.045319,403.588898 
	C132.335190,404.642700 129.762421,404.296631 127.583786,404.590149 
	C127.696823,402.430634 127.271484,400.055847 128.031464,398.154968 
	C129.782135,393.776001 132.108780,389.627350 134.234787,385.318176 
	C128.432846,382.886719 128.247940,387.604034 126.886826,390.131165 
	C122.242302,398.754395 111.363251,403.661133 101.965935,401.065582 
	C99.070122,400.265778 96.699646,399.030029 97.467697,395.001831 
	C99.389832,395.001831 101.283821,395.379883 102.948669,394.923004 
	C106.395424,393.977112 110.015198,393.053375 112.971207,391.183655 
	C114.454849,390.245178 115.708542,386.862640 115.134720,385.290283 
	C114.451546,383.418304 111.871155,381.451355 109.803596,381.025116 
	C104.414116,379.913971 99.810936,382.414703 96.771111,386.665527 
	C93.478172,391.270325 88.975121,393.190063 83.882248,394.394531 
	C76.423447,396.158600 72.247513,392.219299 73.201157,384.132904 
	C74.628059,384.041412 76.105705,384.001648 77.570564,383.843475 
	C85.038322,383.037231 90.950531,379.812836 94.024582,372.650024 
	C96.595657,366.659119 94.383621,361.773590 88.303741,359.396881 
	C81.672523,356.804626 78.768791,357.457947 73.827805,362.736237 
	C66.133133,370.956268 58.458965,379.195526 50.434353,387.792786 
	C51.938644,388.515808 53.232418,389.500610 53.566387,389.242676 
	C57.379250,386.297852 61.045845,383.163666 65.575439,379.394379 
	C66.401016,382.472626 67.190758,384.882904 67.684372,387.352386 
	C69.587570,396.873749 75.078583,400.581909 84.643044,398.619019 
	C87.031754,398.128784 89.381859,397.450378 91.293709,396.972443 
	C99.118492,410.646729 110.278084,405.868835 120.809563,403.305542 
	C124.061058,410.708832 125.709549,411.107910 136.959946,407.603180 
	C138.116684,408.730621 139.204132,410.599213 140.182526,410.543762 
	C141.466614,410.471008 142.852737,409.047516 143.857697,407.907562 
	C145.549164,405.988922 146.975067,403.836212 148.610703,401.651001 
	C157.340668,412.590332 158.475555,412.673553 174.689728,404.142059 
	C179.998917,409.208801 184.298431,409.338165 189.754150,404.393829 
	C191.341843,402.954987 192.592316,401.144012 194.393661,398.907959 
M377.714905,154.969955 
	C374.924988,157.123978 372.135101,159.278000 368.185272,162.327576 
	C379.428253,162.301620 377.001282,172.507355 381.842194,179.319412 
	C383.490265,170.684464 385.112915,163.467331 393.670502,160.224960 
	C385.569580,158.141754 383.252991,152.083359 382.243683,144.993988 
	C381.859375,145.197067 381.475067,145.400131 381.090759,145.603195 
	C380.088043,148.503418 379.085358,151.403641 377.714905,154.969955 
M403.025269,145.357635 
	C401.188690,146.333282 399.352112,147.308929 396.426361,148.863190 
	C404.535553,151.227692 404.695740,158.368118 407.385712,164.190002 
	C409.582275,157.404465 409.773438,149.876678 418.552307,146.713547 
	C409.711487,146.932205 409.798431,139.822800 407.145691,133.627335 
	C405.608429,138.361191 404.568237,141.564362 403.025269,145.357635 
M397.623199,177.940125 
	C395.708862,180.911804 393.794495,183.883499 391.599609,187.290680 
	C396.921722,188.485458 397.223419,193.424362 397.219910,199.782135 
	C400.438660,194.290375 402.763641,190.323563 404.981079,186.540207 
	C403.196045,182.840210 401.147949,178.595016 398.904877,173.945633 
	C398.469116,175.186264 398.115997,176.191528 397.623199,177.940125 
M330.149017,234.451691 
	C327.095490,234.472366 326.850006,236.398132 327.992706,238.372025 
	C328.494751,239.239227 330.315460,239.343079 331.537445,239.793533 
	C331.275238,238.113815 331.013031,236.434097 330.149017,234.451691 
z"/>
<path fill="#FDD3D5" opacity="1.000000" stroke="none" 
	d="
M128.001923,344.421112 
	C164.686859,345.039001 199.564926,339.069183 232.121674,322.721100 
	C257.880554,309.786469 278.776276,291.429230 292.329803,265.510193 
	C293.140259,263.960297 293.688049,262.273102 293.482361,259.774597 
	C291.928680,260.760437 290.411591,261.810333 288.815613,262.722107 
	C273.663849,271.378448 258.932037,280.921967 243.217773,288.399597 
	C226.888031,296.170074 209.320435,296.067627 191.911530,291.080841 
	C182.686447,288.438293 174.962006,283.258698 168.603470,276.234131 
	C161.186066,268.039764 160.456909,255.814240 166.615005,244.962463 
	C172.532730,234.534302 181.192123,226.660782 191.771667,221.328537 
	C201.532562,216.408875 211.801819,212.497787 222.205307,207.987198 
	C220.019470,206.174744 217.523270,204.123596 215.047012,202.048630 
	C199.185791,188.757843 185.135910,173.905731 176.821182,154.643921 
	C174.156403,148.470718 172.360184,141.680710 171.531403,135.003479 
	C169.300018,117.025726 181.575668,103.827835 199.715866,104.185150 
	C215.744324,104.500870 230.182037,110.516106 243.131012,119.117920 
	C279.361847,143.185562 300.868958,176.907776 306.304260,220.326111 
	C307.101959,226.698257 306.415039,233.256226 307.281586,240.542480 
	C312.081421,234.542313 316.881226,228.542160 321.754913,222.449661 
	C318.386078,220.297028 315.583344,219.093597 313.573120,217.093613 
	C309.912628,213.451782 308.893494,208.725952 309.941528,203.680222 
	C310.890076,199.113419 313.758514,196.349350 318.400177,195.684128 
	C322.947266,195.032440 326.318909,197.166473 328.167816,201.075760 
	C329.545593,203.988998 330.048981,207.315796 331.427429,212.167755 
	C333.342560,208.229767 335.436523,205.561707 335.922272,202.627426 
	C337.577240,192.629913 338.360809,182.487000 340.051941,172.496902 
	C341.904633,161.552444 343.156982,150.270325 346.878143,139.929626 
	C353.647736,121.117760 370.793213,109.444435 388.217224,109.945969 
	C391.087616,110.028587 395.917786,108.991348 395.672668,113.366432 
	C395.419891,117.876915 391.011871,115.396538 388.333923,115.335777 
	C378.228882,115.106514 369.865784,119.104568 362.744904,125.917709 
	C351.037140,137.119446 347.576263,151.752304 346.011566,167.102249 
	C345.032135,176.710602 344.412537,186.362823 343.165894,195.934738 
	C341.904205,205.622192 338.790558,214.466232 329.384247,219.550293 
	C328.585266,219.982132 327.892151,220.912567 327.512604,221.771652 
	C322.748474,232.555023 314.739471,240.756699 306.382996,248.724579 
	C305.000244,250.043030 303.716766,251.794800 303.147430,253.587662 
	C294.471130,280.909332 276.309723,300.850586 253.386185,316.806213 
	C224.124512,337.173431 190.822540,346.149597 155.799561,348.779327 
	C139.425079,350.008850 122.883392,349.015442 106.417488,349.012024 
	C105.421745,349.011810 104.263794,349.149994 103.465683,348.709076 
	C102.017570,347.908997 100.783607,346.721252 99.460266,345.695312 
	C100.994919,344.830780 102.545464,343.199097 104.061531,343.230530 
	C111.879951,343.392670 119.689537,343.981140 128.001923,344.421112 
M189.435989,111.573708 
	C181.231934,114.919128 177.067642,121.421219 177.205978,129.878006 
	C177.310150,136.247406 178.136795,143.009308 180.471420,148.867340 
	C190.115173,173.065262 207.968842,190.594193 228.661331,205.526566 
	C229.897858,206.418884 232.039597,206.248978 233.759613,206.246323 
	C241.701416,206.234009 249.727158,205.364319 257.558289,206.252548 
	C263.885498,206.970215 266.834991,212.172577 265.642487,217.325119 
	C264.525940,222.149368 259.925201,225.039993 253.819763,223.791290 
	C249.150269,222.836304 243.877655,221.823486 240.325394,219.005783 
	C231.515533,212.017700 222.921524,213.658493 213.846664,217.488388 
	C211.549057,218.458054 209.134064,219.146912 206.821930,220.085373 
	C194.781921,224.972198 183.879395,231.524063 175.501129,241.716522 
	C164.033447,255.667297 165.643829,269.072540 180.478287,279.136261 
	C197.503494,290.686157 216.204666,291.253540 235.086060,285.263123 
	C256.947113,278.327301 275.555511,265.286896 293.942383,251.972260 
	C297.806000,249.174500 299.413971,245.796814 300.087616,241.252533 
	C302.805084,222.920929 300.137177,205.274277 292.876038,188.461533 
	C278.522888,155.227722 257.182831,128.418030 222.281357,114.815048 
	C211.949585,110.788208 201.380768,107.833710 189.435989,111.573708 
M318.088196,201.482056 
	C313.973907,205.490753 314.405273,211.826706 319.184509,214.408218 
	C320.409485,215.069901 323.546082,214.836029 323.566162,214.694839 
	C323.978302,211.801132 324.784027,208.641998 323.979187,206.002975 
	C323.386017,204.057877 320.604980,202.779984 318.088196,201.482056 
M251.237442,210.955551 
	C247.360336,210.955551 243.483246,210.955551 239.606140,210.955551 
	C239.504044,211.495102 239.401947,212.034653 239.299850,212.574203 
	C243.148956,214.210373 246.878571,216.328888 250.887024,217.321762 
	C253.805618,218.044678 258.682648,220.835388 259.770447,216.066498 
	C261.023621,210.572525 255.364761,211.818161 251.237442,210.955551 
z"/>
<path fill="#FDD1D3" opacity="1.000000" stroke="none" 
	d="
M194.195526,399.205811 
	C192.592316,401.144012 191.341843,402.954987 189.754150,404.393829 
	C184.298431,409.338165 179.998917,409.208801 174.689728,404.142059 
	C158.475555,412.673553 157.340668,412.590332 148.610703,401.651001 
	C146.975067,403.836212 145.549164,405.988922 143.857697,407.907562 
	C142.852737,409.047516 141.466614,410.471008 140.182526,410.543762 
	C139.204132,410.599213 138.116684,408.730621 136.959946,407.603180 
	C125.709549,411.107910 124.061058,410.708832 120.809563,403.305542 
	C110.278084,405.868835 99.118492,410.646729 91.293709,396.972443 
	C89.381859,397.450378 87.031754,398.128784 84.643044,398.619019 
	C75.078583,400.581909 69.587570,396.873749 67.684372,387.352386 
	C67.190758,384.882904 66.401016,382.472626 65.575439,379.394379 
	C61.045845,383.163666 57.379250,386.297852 53.566387,389.242676 
	C53.232418,389.500610 51.938644,388.515808 50.434353,387.792786 
	C58.458965,379.195526 66.133133,370.956268 73.827805,362.736237 
	C78.768791,357.457947 81.672523,356.804626 88.303741,359.396881 
	C94.383621,361.773590 96.595657,366.659119 94.024582,372.650024 
	C90.950531,379.812836 85.038322,383.037231 77.570564,383.843475 
	C76.105705,384.001648 74.628059,384.041412 73.201157,384.132904 
	C72.247513,392.219299 76.423447,396.158600 83.882248,394.394531 
	C88.975121,393.190063 93.478172,391.270325 96.771111,386.665527 
	C99.810936,382.414703 104.414116,379.913971 109.803596,381.025116 
	C111.871155,381.451355 114.451546,383.418304 115.134720,385.290283 
	C115.708542,386.862640 114.454849,390.245178 112.971207,391.183655 
	C110.015198,393.053375 106.395424,393.977112 102.948669,394.923004 
	C101.283821,395.379883 99.389832,395.001831 97.467697,395.001831 
	C96.699646,399.030029 99.070122,400.265778 101.965935,401.065582 
	C111.363251,403.661133 122.242302,398.754395 126.886826,390.131165 
	C128.247940,387.604034 128.432846,382.886719 134.234787,385.318176 
	C132.108780,389.627350 129.782135,393.776001 128.031464,398.154968 
	C127.271484,400.055847 127.696823,402.430634 127.583786,404.590149 
	C129.762421,404.296631 132.335190,404.642700 134.045319,403.588898 
	C139.051163,400.504272 143.141418,396.543671 144.974396,390.515594 
	C147.004883,383.837921 149.483841,377.281006 152.114563,370.812653 
	C152.750244,369.249664 154.751541,368.242096 156.124863,366.979095 
	C156.628113,367.400055 157.131363,367.820984 157.634613,368.241943 
	C154.643524,376.759186 151.652451,385.276459 148.661362,393.793701 
	C148.957550,394.037476 149.253754,394.281250 149.549957,394.524994 
	C154.881897,391.195343 160.213837,387.865662 165.545776,384.536011 
	C166.122116,384.924683 166.698456,385.313385 167.274796,385.702087 
	C166.607880,387.084473 166.286957,388.908020 165.202789,389.758423 
	C162.865524,391.591614 160.014771,392.758270 157.605133,394.514618 
	C155.654205,395.936646 152.342850,396.901611 154.268951,400.576691 
	C156.101807,404.073853 158.676193,407.026489 162.898605,405.671875 
	C169.143005,403.668640 173.946472,399.604553 176.208344,393.192200 
	C177.033524,390.852844 177.101761,388.226715 178.057068,385.959686 
	C178.732330,384.357239 180.319153,383.138885 181.499039,381.749054 
	C182.105148,382.063782 182.711243,382.378510 183.317352,382.693268 
	C182.340332,387.143127 181.101181,391.557892 180.498276,396.057922 
	C180.202393,398.266296 181.086823,400.632812 181.437103,402.927765 
	C183.704361,401.921906 186.504868,401.438354 188.117798,399.791626 
	C190.739532,397.114960 192.584000,393.677002 194.994095,390.219635 
	C200.473694,393.713196 195.004211,396.174988 194.195526,399.205811 
M66.600197,379.583923 
	C68.390923,379.378784 70.277489,378.706451 71.955521,379.050659 
	C78.656502,380.425323 85.623390,378.127472 88.722771,373.038605 
	C90.480286,370.152893 91.470856,366.906860 88.173248,364.590576 
	C85.068100,362.409424 81.427925,361.350159 78.248718,364.717163 
	C73.802872,369.425690 69.481819,374.251984 64.959320,379.624390 
	C65.298073,379.722565 65.636826,379.820740 66.600197,379.583923 
M106.130829,385.355408 
	C104.068916,386.706085 102.006996,388.056732 99.945084,389.407410 
	C100.155502,389.933960 100.365921,390.460510 100.576340,390.987091 
	C102.953796,390.807800 105.439392,390.985779 107.667046,390.311523 
	C108.946594,389.924255 109.807961,388.155365 110.857582,387.008423 
	C109.528534,386.391785 108.199493,385.775116 106.130829,385.355408 
z"/>
<path fill="#FDD1D3" opacity="1.000000" stroke="none" 
	d="
M317.417389,323.493500 
	C317.335083,325.487427 317.431854,327.508301 317.136536,329.470184 
	C316.285828,335.121307 313.561523,337.110901 308.051270,336.419006 
	C306.643433,339.746124 305.615204,343.268707 303.758698,346.280731 
	C301.552216,349.860474 297.989716,350.437164 294.071442,348.391815 
	C293.094299,351.532532 292.594849,354.530518 291.271576,357.105072 
	C288.403534,362.685181 283.110291,362.841583 280.205261,357.296967 
	C276.066345,349.397339 276.257141,341.243530 280.559845,333.392761 
	C282.190979,330.416534 284.850342,328.977966 289.245880,329.995667 
	C288.215118,331.628662 287.723145,333.054047 286.730408,333.871063 
	C281.946320,337.808289 280.119415,349.129547 283.671906,354.277039 
	C284.175507,355.006714 285.525024,356.019348 285.879333,355.821259 
	C286.904846,355.247833 288.292114,354.163269 288.348175,353.209503 
	C288.629547,348.421936 288.908905,343.574097 288.431702,338.823517 
	C288.120361,335.723755 288.743256,334.445923 292.265839,334.479492 
	C293.031647,336.312378 293.604523,338.422485 294.736511,340.170593 
	C295.729828,341.704529 297.350159,342.832489 298.693542,344.139740 
	C299.964478,342.568085 302.146423,341.092743 302.324768,339.405548 
	C302.752686,335.357788 302.319855,331.205963 302.084900,327.104706 
	C301.820343,322.486816 300.862793,317.840607 301.188019,313.276642 
	C301.494385,308.977448 303.732086,305.412079 309.243103,304.941559 
	C309.543060,306.545685 309.800537,307.922699 310.058044,309.299744 
	C310.365204,309.020020 310.672363,308.740326 310.979523,308.460602 
	C312.706207,309.907715 314.505524,311.278900 316.129120,312.833679 
	C316.950806,313.620544 317.286713,314.940735 318.145111,315.656555 
	C319.212036,316.546326 320.758759,317.779205 321.791260,317.539795 
	C322.877655,317.287933 324.432861,315.402100 324.343536,314.352814 
	C323.900208,309.146759 323.160309,303.945068 322.127197,298.822083 
	C321.792419,297.162231 320.186371,295.782745 319.275543,294.209198 
	C318.033997,292.064392 316.772400,290.760223 313.767487,291.142914 
	C312.139191,291.350281 309.830811,289.730927 308.617523,288.277496 
	C307.960175,287.490082 308.455933,284.482391 309.321869,283.964264 
	C310.762695,283.102081 312.929169,283.504395 314.772552,283.248291 
	C316.527252,283.004517 318.593750,283.091675 319.941284,282.176514 
	C324.658173,278.973083 326.984222,279.260559 330.198547,284.070892 
	C331.308136,285.731415 332.187256,287.630005 333.593231,288.981171 
	C334.669678,290.015686 336.793793,291.228882 337.759735,290.800781 
	C339.080933,290.215240 340.569153,288.137451 340.549988,286.718658 
	C340.464905,280.419342 339.039337,274.356964 333.714722,270.301117 
	C332.231750,269.171509 329.068115,270.012329 327.886139,268.784119 
	C326.456085,267.298157 326.254456,264.590942 325.630188,262.381409 
	C325.159973,260.717102 324.861359,259.004333 324.486359,257.313141 
	C324.946411,257.158722 325.406464,257.004333 325.866486,256.849945 
	C327.046783,257.706360 328.227051,258.562775 329.636963,259.585815 
	C330.580078,258.046326 331.496796,256.549927 333.105988,253.923157 
	C334.036530,256.192413 335.540802,258.152588 335.066101,258.987488 
	C332.481262,263.533325 335.456024,265.827271 338.342377,268.093292 
	C340.904114,270.104462 343.299988,274.938446 346.774811,272.030548 
	C348.834381,270.306946 349.073669,265.369751 348.723450,262.024963 
	C348.031860,255.419983 344.391083,250.282944 338.569031,246.804062 
	C336.062286,245.306198 334.348022,243.414597 337.126129,239.961777 
	C341.066254,242.963394 344.872772,246.145599 348.990326,248.855133 
	C350.545776,249.878693 352.819977,249.810013 354.766541,250.239227 
	C354.958313,248.221069 355.874298,245.908279 355.197083,244.243652 
	C353.587738,240.287949 351.224152,236.639114 348.396027,231.456619 
	C350.725037,231.849731 352.838165,231.613663 353.314667,232.386581 
	C355.740082,236.320877 358.414246,240.312332 359.735840,244.667755 
	C361.760712,251.340881 359.208221,254.853943 352.399567,256.601135 
	C354.601562,272.562347 353.151855,276.605316 344.325378,278.579193 
	C344.527893,281.468170 345.100464,284.429596 344.848785,287.319275 
	C344.508118,291.230499 343.270203,295.072235 338.846283,296.208099 
	C334.628448,297.291016 331.951843,294.653687 329.737122,291.519897 
	C328.777252,290.161743 328.218689,288.371490 326.987518,287.397034 
	C325.852295,286.498474 324.060455,286.429443 322.557861,285.995026 
	C322.387939,287.521362 321.535706,289.449127 322.159027,290.508820 
	C326.167053,297.322510 329.686188,304.171295 329.015686,312.453308 
	C328.427521,319.718964 325.151245,323.245880 318.643616,322.393677 
	C317.845612,322.589600 317.631500,323.041565 317.417389,323.493500 
M311.839508,316.997986 
	C311.026855,314.559814 310.214172,312.121643 309.343781,309.510254 
	C308.348663,309.890991 307.590515,309.961395 307.173004,310.375366 
	C303.639343,313.879120 305.056488,328.107452 309.374146,330.609192 
	C310.008209,330.976532 312.851044,329.378326 312.859741,328.667328 
	C312.904022,325.057678 312.350922,321.440735 311.839508,316.997986 
z"/>
<path fill="#FDD2D4" opacity="1.000000" stroke="none" 
	d="
M226.654770,389.873138 
	C234.245468,384.780518 240.175827,378.937744 237.194229,368.536102 
	C236.437744,365.897003 236.412781,363.051422 240.674423,362.494843 
	C241.861984,369.295685 243.057709,376.143341 244.253433,382.990967 
	C244.949127,383.086151 245.644821,383.181335 246.340530,383.276520 
	C247.505173,381.101807 249.349960,379.030792 249.700348,376.731964 
	C250.571609,371.015839 250.632492,365.180939 251.299698,359.426300 
	C251.515228,357.567383 252.604980,355.809784 253.294846,354.005859 
	C253.931900,354.126343 254.568970,354.246857 255.206039,354.367340 
	C256.335571,361.803253 257.465088,369.239197 258.794067,377.988037 
	C263.606964,372.402771 265.869751,367.053772 267.179779,361.226501 
	C267.756836,358.659790 268.479065,356.585938 271.911896,358.828186 
	C271.046204,367.137299 267.370544,374.207245 262.497894,380.913849 
	C260.990601,382.988434 260.680756,385.936157 259.836761,388.488739 
	C258.416748,392.783569 257.502625,397.359283 255.332336,401.232147 
	C254.549072,402.629883 249.760605,403.533447 248.586700,402.543518 
	C246.910477,401.130096 245.721848,397.382965 246.406616,395.325287 
	C247.509720,392.010559 250.433685,389.336761 252.348007,386.243439 
	C253.432892,384.490448 254.038773,382.441040 253.866882,380.106506 
	C251.764587,382.487976 250.070053,385.775574 247.430603,386.963409 
	C245.329559,387.908936 242.074600,386.290344 238.076431,385.590210 
	C232.614548,392.335327 224.009079,397.619720 212.813095,399.863708 
	C213.465302,398.511261 213.757065,396.633698 214.831421,395.896210 
	C219.788345,392.493652 221.737854,387.440033 222.716812,381.969604 
	C223.012863,380.315247 221.815857,378.393738 221.302750,376.594604 
	C219.719971,377.551758 217.211014,378.169250 216.713959,379.524567 
	C214.506104,385.544922 212.935623,391.796021 210.996902,397.920013 
	C210.436188,399.691193 209.416840,401.317169 208.607758,403.009705 
	C208.060104,402.825226 207.512451,402.640747 206.964813,402.456268 
	C206.798370,401.703156 206.468369,400.945374 206.489792,400.197693 
	C206.866409,387.050201 207.200211,373.900085 207.800034,360.762207 
	C207.878784,359.037140 209.367050,357.376465 210.202515,355.685944 
	C210.791672,355.895294 211.380844,356.104614 211.970016,356.313965 
	C211.970016,363.127838 211.970016,369.941681 211.970016,377.838287 
	C214.186600,375.478851 215.432190,373.680634 217.101974,372.465118 
	C221.912537,368.963196 226.675613,370.777893 227.191025,376.667389 
	C227.512970,380.346191 226.309875,384.158447 225.532959,388.490601 
	C225.256531,389.497742 225.238281,389.925079 225.220032,390.352417 
	C225.698273,390.192657 226.176529,390.032898 226.654770,389.873138 
M252.206619,392.013672 
	C251.649765,392.830414 250.714859,393.606415 250.621384,394.473145 
	C250.466843,395.905853 250.854996,397.397064 251.014481,398.863678 
	C252.243225,398.048370 254.093079,397.491119 254.562744,396.360474 
	C255.373108,394.409698 255.325577,392.102570 255.638016,389.944946 
	C255.303574,389.831543 254.969147,389.718140 254.634705,389.604736 
	C253.976944,390.231934 253.319168,390.859131 252.206619,392.013672 
z"/>
<path fill="#FDD3D5" opacity="1.000000" stroke="none" 
	d="
M377.898773,154.636902 
	C379.085358,151.403641 380.088043,148.503418 381.090759,145.603195 
	C381.475067,145.400131 381.859375,145.197067 382.243683,144.993988 
	C383.252991,152.083359 385.569580,158.141754 393.670502,160.224960 
	C385.112915,163.467331 383.490265,170.684464 381.842194,179.319412 
	C377.001282,172.507355 379.428253,162.301620 368.185272,162.327576 
	C372.135101,159.278000 374.924988,157.123978 377.898773,154.636902 
z"/>
<path fill="#FDD3D5" opacity="1.000000" stroke="none" 
	d="
M403.276672,145.062576 
	C404.568237,141.564362 405.608429,138.361191 407.145691,133.627335 
	C409.798431,139.822800 409.711487,146.932205 418.552307,146.713547 
	C409.773438,149.876678 409.582275,157.404465 407.385712,164.190002 
	C404.695740,158.368118 404.535553,151.227692 396.426361,148.863190 
	C399.352112,147.308929 401.188690,146.333282 403.276672,145.062576 
z"/>
<path fill="#FDD2D4" opacity="1.000000" stroke="none" 
	d="
M397.693054,177.568451 
	C398.115997,176.191528 398.469116,175.186264 398.904877,173.945633 
	C401.147949,178.595016 403.196045,182.840210 404.981079,186.540207 
	C402.763641,190.323563 400.438660,194.290375 397.219910,199.782135 
	C397.223419,193.424362 396.921722,188.485458 391.599609,187.290680 
	C393.794495,183.883499 395.708862,180.911804 397.693054,177.568451 
z"/>
<path fill="#F9C7CC" opacity="1.000000" stroke="none" 
	d="
M330.449951,234.603027 
	C331.013031,236.434097 331.275238,238.113815 331.537415,239.793549 
	C330.315460,239.343079 328.494751,239.239227 327.992706,238.372025 
	C326.850006,236.398132 327.095490,234.472366 330.449951,234.603027 
z"/>
<path fill="#D14E73" opacity="1.000000" stroke="none" 
	d="
M189.801910,111.417130 
	C201.380768,107.833710 211.949585,110.788208 222.281357,114.815048 
	C257.182831,128.418030 278.522888,155.227722 292.876038,188.461533 
	C300.137177,205.274277 302.805084,222.920929 300.087616,241.252533 
	C299.413971,245.796814 297.806000,249.174500 293.942383,251.972260 
	C275.555511,265.286896 256.947113,278.327301 235.086060,285.263123 
	C216.204666,291.253540 197.503494,290.686157 180.478287,279.136261 
	C165.643829,269.072540 164.033447,255.667297 175.501129,241.716522 
	C183.879395,231.524063 194.781921,224.972198 206.821930,220.085373 
	C209.134064,219.146912 211.549057,218.458054 213.846664,217.488388 
	C222.921524,213.658493 231.515533,212.017700 240.325394,219.005783 
	C243.877655,221.823486 249.150269,222.836304 253.819763,223.791290 
	C259.925201,225.039993 264.525940,222.149368 265.642487,217.325119 
	C266.834991,212.172577 263.885498,206.970215 257.558289,206.252548 
	C249.727158,205.364319 241.701416,206.234009 233.759613,206.246323 
	C232.039597,206.248978 229.897858,206.418884 228.661331,205.526566 
	C207.968842,190.594193 190.115173,173.065262 180.471420,148.867340 
	C178.136795,143.009308 177.310150,136.247406 177.205978,129.878006 
	C177.067642,121.421219 181.231934,114.919128 189.801910,111.417130 
z"/>
<path fill="#D35477" opacity="1.000000" stroke="none" 
	d="
M318.443481,201.343430 
	C320.604980,202.779984 323.386017,204.057877 323.979187,206.002975 
	C324.784027,208.641998 323.978302,211.801132 323.566162,214.694839 
	C323.546082,214.836029 320.409485,215.069901 319.184509,214.408218 
	C314.405273,211.826706 313.973907,205.490753 318.443481,201.343430 
z"/>
<path fill="#D35477" opacity="1.000000" stroke="none" 
	d="
M251.692886,210.977295 
	C255.364761,211.818161 261.023621,210.572525 259.770447,216.066498 
	C258.682648,220.835388 253.805618,218.044678 250.887024,217.321762 
	C246.878571,216.328888 243.148956,214.210373 239.299850,212.574203 
	C239.401947,212.034653 239.504044,211.495102 239.606140,210.955551 
	C243.483246,210.955551 247.360336,210.955551 251.692886,210.977295 
z"/>
<path fill="#D25175" opacity="1.000000" stroke="none" 
	d="
M65.107353,379.027863 
	C69.481819,374.251984 73.802872,369.425690 78.248718,364.717163 
	C81.427925,361.350159 85.068100,362.409424 88.173248,364.590576 
	C91.470856,366.906860 90.480286,370.152893 88.722771,373.038605 
	C85.623390,378.127472 78.656502,380.425323 71.955521,379.050659 
	C70.277489,378.706451 68.390923,379.378784 66.151077,379.595337 
	C65.514030,379.403229 65.315834,379.210266 65.107353,379.027863 
z"/>
<path fill="#D35477" opacity="1.000000" stroke="none" 
	d="
M106.500641,385.256958 
	C108.199493,385.775116 109.528534,386.391785 110.857574,387.008423 
	C109.807961,388.155365 108.946594,389.924255 107.667046,390.311523 
	C105.439392,390.985779 102.953796,390.807800 100.576340,390.987091 
	C100.365921,390.460510 100.155502,389.933960 99.945084,389.407410 
	C102.006996,388.056732 104.068916,386.706085 106.500641,385.256958 
z"/>
<path fill="#D14D72" opacity="1.000000" stroke="none" 
	d="
M65.033333,379.326111 
	C65.315834,379.210266 65.514030,379.403229 65.838760,379.762848 
	C65.636826,379.820740 65.298073,379.722565 65.033333,379.326111 
z"/>
<path fill="#D14D72" opacity="1.000000" stroke="none" 
	d="
M311.923279,317.412170 
	C312.350922,321.440735 312.904022,325.057678 312.859741,328.667328 
	C312.851044,329.378326 310.008209,330.976532 309.374146,330.609192 
	C305.056488,328.107452 303.639343,313.879120 307.173004,310.375366 
	C307.590515,309.961395 308.348663,309.890991 309.343781,309.510254 
	C310.214172,312.121643 311.026855,314.559814 311.923279,317.412170 
z"/>
<path fill="#D14D72" opacity="1.000000" stroke="none" 
	d="
M317.693115,323.214508 
	C317.631500,323.041565 317.845612,322.589600 318.282471,322.250366 
	C318.326447,322.553894 318.147644,322.744690 317.693115,323.214508 
z"/>
<path fill="#D65B7C" opacity="1.000000" stroke="none" 
	d="
M252.434006,391.750000 
	C253.319168,390.859131 253.976944,390.231934 254.634705,389.604736 
	C254.969147,389.718140 255.303574,389.831543 255.638016,389.944946 
	C255.325577,392.102570 255.373108,394.409698 254.562744,396.360474 
	C254.093079,397.491119 252.243225,398.048370 251.014465,398.863647 
	C250.854996,397.397064 250.466843,395.905853 250.621384,394.473145 
	C250.714859,393.606415 251.649765,392.830414 252.434006,391.750000 
z"/>
<path fill="#D14D72" opacity="1.000000" stroke="none" 
	d="
M226.398804,389.566284 
	C226.176529,390.032898 225.698273,390.192657 225.220032,390.352417 
	C225.238281,389.925079 225.256531,389.497742 225.446045,388.863831 
	C225.792480,388.857941 225.967651,389.058685 226.398804,389.566284 
z"/>
</svg>